<?xml version="1.0" standalone="no"?>
<!DOCTYPE svg PUBLIC "-//W3C//DTD SVG 20010904//EN"
 "http://www.w3.org/TR/2001/REC-SVG-20010904/DTD/svg10.dtd">
<svg version="1.0" xmlns="http://www.w3.org/2000/svg"
 width="512.000000pt" height="512.000000pt" viewBox="0 0 512.000000 512.000000"
 preserveAspectRatio="xMidYMid meet">
<metadata>
Created by potrace 1.15, written by Peter Selinger 2001-2017
</metadata>
<g transform="translate(0.000000,512.000000) scale(0.100000,-0.100000)"
fill="#000000" stroke="none">
<path d="M780 4466 c-132 -28 -246 -119 -307 -244 l-38 -76 0 -1025 0 -1026
32 -68 c68 -143 195 -236 352 -259 l81 -12 0 -265 c0 -250 1 -267 21 -309 32
-65 95 -102 173 -102 42 0 71 6 91 18 17 11 225 164 462 340 l433 322 747 0
c612 0 760 3 816 15 174 37 305 168 342 342 22 101 22 1905 0 2006 -37 178
-183 318 -360 347 -92 15 -2774 12 -2845 -4z m2844 -228 c54 -16 128 -90 144
-144 17 -57 17 -1888 1 -1945 -17 -55 -65 -108 -123 -135 l-51 -24 -790 0
c-749 0 -792 -1 -820 -18 -16 -11 -217 -157 -445 -327 l-415 -308 -5 289 c-4
209 -9 295 -18 311 -23 41 -63 53 -175 53 -91 0 -109 3 -156 26 -64 32 -105
86 -120 155 -15 67 -15 1814 -1 1890 14 73 53 127 119 161 l53 28 1380 0
c1059 0 1390 -3 1422 -12z"/>
<path d="M1265 3343 c-141 -74 -167 -251 -54 -361 30 -30 108 -62 149 -62 41
0 119 32 149 62 113 110 87 288 -51 359 -47 24 -150 25 -193 2z"/>
<path d="M2115 3346 c-110 -49 -159 -198 -102 -307 28 -54 99 -104 160 -113
130 -20 257 87 257 217 0 79 -51 162 -121 197 -45 24 -148 27 -194 6z"/>
<path d="M2970 3345 c-134 -61 -168 -241 -66 -353 89 -99 262 -86 340 26 26
37 31 54 34 115 3 61 0 79 -21 117 -13 25 -43 58 -66 75 -36 25 -53 30 -114
32 -49 2 -83 -2 -107 -12z"/>
<path d="M4187 4029 c-23 -13 -47 -62 -47 -94 0 -64 38 -97 129 -109 79 -12
145 -58 184 -131 l22 -40 0 -960 0 -960 -22 -41 c-50 -93 -116 -125 -275 -132
-113 -5 -118 -6 -145 -34 l-28 -29 -5 -293 -5 -292 -435 322 -435 323 -538 1
-539 0 -29 -29 c-24 -24 -29 -38 -29 -76 0 -38 5 -52 29 -76 l29 -29 492 0
492 0 446 -331 c244 -182 460 -337 478 -345 67 -28 161 -7 211 47 49 54 53 80
53 362 l0 264 68 5 c165 13 310 121 375 278 l22 55 3 999 c3 1114 6 1050 -67
1164 -75 115 -215 192 -350 192 -36 0 -74 -5 -84 -11z"/>
</g>
</svg>
