<?xml version="1.0" standalone="no"?>
<!DOCTYPE svg PUBLIC "-//W3C//DTD SVG 20010904//EN"
 "http://www.w3.org/TR/2001/REC-SVG-20010904/DTD/svg10.dtd">
<svg version="1.0" xmlns="http://www.w3.org/2000/svg"
 width="256.000000pt" height="256.000000pt" viewBox="0 0 256.000000 256.000000"
 preserveAspectRatio="xMidYMid meet">
<metadata>
Created by potrace 1.15, written by Peter Selinger 2001-2017
</metadata>
<g transform="translate(0.000000,256.000000) scale(0.100000,-0.100000)"
fill="#000000" stroke="none">
<path d="M1365 2161 c-43 -19 -100 -78 -115 -117 -5 -13 -16 -66 -24 -117 -26
-159 -73 -285 -149 -397 -41 -60 -162 -185 -214 -221 -56 -39 -66 -74 -29
-106 15 -13 33 -23 40 -23 24 0 111 65 183 138 156 158 251 352 288 590 14 85
19 100 45 125 56 51 147 25 165 -46 11 -44 -32 -257 -79 -392 -78 -219 -82
-215 212 -215 236 0 257 -4 292 -63 11 -18 20 -47 20 -66 0 -19 -30 -201 -66
-405 -69 -392 -72 -401 -134 -443 -33 -23 -36 -23 -379 -23 -267 1 -362 4
-416 16 -127 26 -150 28 -168 9 -25 -24 -22 -71 6 -89 12 -8 60 -24 107 -36
78 -18 117 -20 466 -20 l380 0 52 26 c59 29 105 80 127 139 22 59 145 762 145
826 0 68 -26 126 -80 177 -63 62 -106 72 -301 72 l-167 0 34 106 c43 130 78
331 69 390 -20 137 -182 224 -310 165z"/>
<path d="M297 1222 c-23 -25 -21 -58 3 -82 18 -18 33 -20 150 -20 l130 0 0
-370 0 -370 -130 0 c-117 0 -132 -2 -150 -20 -25 -25 -26 -62 -2 -83 16 -15
45 -17 194 -17 157 0 177 2 191 18 15 17 17 64 17 474 0 428 -1 456 -18 471
-16 15 -45 17 -194 17 -157 0 -177 -2 -191 -18z"/>
</g>
</svg>
