<?xml version="1.0" standalone="no"?>
<!DOCTYPE svg PUBLIC "-//W3C//DTD SVG 20010904//EN"
 "http://www.w3.org/TR/2001/REC-SVG-20010904/DTD/svg10.dtd">
<svg version="1.0" xmlns="http://www.w3.org/2000/svg"
 width="220.000000pt" height="213.000000pt" viewBox="0 0 220.000000 213.000000"
 preserveAspectRatio="xMidYMid meet">
<metadata>
Created by potrace 1.15, written by Peter Selinger 2001-2017
</metadata>
<g transform="translate(0.000000,213.000000) scale(0.100000,-0.100000)"
fill="#000000" stroke="none">
<path d="M1070 1781 c0 -5 3 -11 8 -13 4 -2 18 -15 30 -30 17 -19 22 -33 17
-48 -7 -22 -7 -22 -28 -2 -35 30 -51 38 -44 20 5 -14 3 -15 -21 -2 -30 15 -62
18 -62 6 0 -5 10 -8 23 -8 27 1 30 -27 3 -32 -11 -3 -16 0 -12 7 10 16 -6 14
-31 -4 -31 -22 -48 -82 -34 -118 6 -16 15 -25 21 -22 6 4 8 -10 5 -37 -3 -24
-2 -72 3 -108 5 -36 10 -52 11 -36 1 25 3 27 18 15 15 -13 15 -12 4 9 -14 27
-6 78 14 86 15 5 111 -16 122 -28 4 -4 2 -21 -5 -39 l-11 -32 22 28 c24 28 37
34 37 16 0 -16 32 -83 44 -91 6 -4 25 -7 41 -7 l30 1 -30 9 c-35 10 -56 35
-48 55 4 10 9 12 18 4 14 -12 60 -7 60 6 0 5 -22 10 -48 12 -32 2 -47 7 -44
15 4 12 67 13 116 1 22 -5 23 -8 17 -60 -4 -35 -21 -83 -45 -130 -21 -41 -35
-74 -30 -74 5 0 9 5 9 10 0 6 6 10 13 10 6 0 19 17 28 38 l17 37 -3 -51 c-3
-55 -12 -80 -44 -108 -31 -28 -25 -6 9 33 41 48 31 49 -20 1 -44 -41 -76 -48
-74 -18 1 14 -3 15 -23 7 -39 -15 -78 -10 -107 12 l-27 21 7 -44 c4 -23 13
-55 20 -69 11 -22 10 -27 -7 -37 -26 -16 -32 0 -27 68 3 54 -7 69 -14 20 -6
-41 5 -115 17 -115 6 0 15 -4 22 -8 6 -4 24 -2 38 5 23 10 29 10 40 -5 6 -9
15 -14 18 -10 13 12 7 30 -14 39 l-21 9 21 19 c21 19 21 19 22 -5 0 -22 1 -22
8 -4 5 11 4 23 -1 26 -5 3 -2 12 6 19 9 7 13 17 10 22 -11 17 29 -9 54 -34 19
-21 22 -33 19 -89 -2 -35 -9 -74 -15 -86 -7 -12 -12 -34 -11 -50 0 -15 3 -22
6 -15 11 28 24 9 22 -32 -2 -25 3 -51 10 -59 6 -9 43 -30 81 -48 38 -18 66
-37 63 -42 -3 -6 -1 -7 5 -3 9 5 82 -23 100 -39 2 -2 -1 -21 -7 -42 -7 -25 -7
-51 -2 -71 5 -18 7 -32 4 -32 -3 0 -45 24 -94 53 -49 28 -121 70 -160 92 -54
30 -75 48 -85 73 -12 29 -11 35 5 51 10 10 23 20 29 22 6 2 13 18 16 34 6 27
5 28 -4 6 -15 -33 -71 -83 -87 -77 -11 5 -11 10 -3 26 6 12 10 33 8 48 -2 20
3 29 22 39 14 7 19 13 12 13 -9 0 -9 5 2 23 21 31 48 109 36 102 -6 -4 -21
-27 -35 -53 -47 -90 -53 -93 -101 -50 -14 12 -24 16 -28 9 -5 -7 -22 -3 -51
11 l-43 21 -26 -29 c-30 -34 -32 -47 -11 -64 12 -10 19 -10 27 -2 13 13 72 17
66 5 -2 -5 -10 -25 -18 -45 -16 -43 -35 -48 -95 -22 -41 17 -95 65 -95 85 0 7
13 33 29 58 21 32 30 62 33 99 l3 53 -99 5 c-55 3 -115 12 -134 20 -52 21 -52
8 -1 -16 25 -11 66 -20 95 -20 28 0 66 -5 84 -11 31 -11 32 -14 27 -51 -3 -22
-17 -57 -32 -78 -24 -35 -26 -43 -16 -72 8 -21 8 -35 1 -42 -15 -15 -12 -24 8
-28 17 -4 -65 -10 -150 -12 -25 -1 -44 -4 -41 -8 2 -5 11 -8 19 -8 8 0 12 -4
9 -10 -11 -18 15 -50 43 -51 24 0 24 -1 7 -8 -11 -5 -27 -6 -35 -4 -8 3 -1 -4
15 -15 17 -11 52 -43 80 -71 50 -52 65 -61 65 -38 0 6 -17 22 -38 33 l-37 22
50 7 c34 6 50 4 53 -4 2 -6 8 -9 13 -5 12 7 11 -8 -1 -40 -7 -19 -6 -26 3 -26
8 0 7 -4 -3 -10 -13 -9 -11 -13 10 -30 14 -11 29 -20 33 -20 5 0 5 -6 1 -12
-4 -7 -4 -10 0 -6 4 3 36 -7 71 -23 36 -16 70 -29 77 -28 7 0 3 4 -10 10 -23
9 -23 9 -5 40 10 16 26 38 36 47 17 15 17 15 11 -1 -4 -12 -1 -17 11 -17 15 0
17 7 11 52 -5 37 -4 53 6 59 17 11 189 11 207 0 10 -7 12 -22 7 -65 -7 -53 -9
-56 -39 -60 -64 -11 -207 -11 -211 -1 -3 6 -5 2 -5 -7 -1 -13 7 -18 25 -18 19
0 25 -4 20 -15 -3 -8 -9 -22 -12 -30 -5 -12 3 -15 39 -15 25 0 49 -4 52 -10
14 -23 284 -5 325 22 13 8 12 9 -2 4 -47 -14 -91 -18 -84 -7 4 6 3 11 -1 11
-5 0 -19 21 -31 46 l-23 46 28 -5 c15 -3 49 -8 75 -12 35 -4 50 -12 63 -32 14
-21 15 -27 4 -34 -29 -18 12 -9 67 16 90 40 128 66 112 77 -9 6 -6 7 9 3 12
-3 24 -2 27 3 3 5 -30 13 -74 16 -81 7 -94 13 -85 38 4 10 33 14 115 16 61 1
110 -1 110 -4 0 -3 -12 -16 -27 -30 l-28 -26 35 26 c50 37 144 143 164 186 4
8 -1 5 -10 -8 l-17 -23 -17 28 c-15 25 -15 31 -2 59 18 38 11 73 -23 111 l-24
28 -1 -37 c0 -37 -12 -49 -25 -27 -4 6 -17 14 -29 19 l-21 9 23 0 c35 1 26 21
-10 21 -22 0 -29 3 -20 9 11 7 9 13 -8 29 l-22 20 43 -5 c40 -6 43 -5 30 10
-9 12 -10 17 -2 17 7 0 18 -15 26 -32 8 -18 14 -27 15 -20 0 7 -5 23 -11 34
-9 17 -5 26 29 62 51 52 62 75 62 124 0 34 -3 39 -18 35 -12 -3 -24 4 -34 19
-20 30 -40 101 -27 93 13 -9 11 9 -3 23 -9 9 -9 12 0 12 10 0 10 5 2 20 -6 12
-10 28 -8 38 4 24 -28 89 -68 139 -39 48 -45 67 -11 35 47 -44 32 -11 -20 45
-29 31 -53 61 -53 67 0 6 5 5 12 -2 7 -7 15 -12 20 -12 4 0 -4 11 -17 24 -14
14 -22 31 -19 39 6 16 33 18 54 4 12 -9 12 -8 -1 6 -20 23 -89 35 -89 16 0 -8
-8 -4 -21 10 -15 16 -24 20 -32 12 -7 -7 -6 -16 6 -29 9 -10 14 -21 11 -25 -3
-3 8 -13 24 -21 38 -20 54 -41 23 -31 -30 9 -27 0 21 -55 23 -26 43 -54 44
-62 1 -7 6 -28 9 -45 7 -29 5 -33 -13 -33 -11 0 -29 -3 -39 -7 -13 -6 -8 -9
22 -13 40 -5 40 -6 41 -48 2 -59 -21 -120 -59 -161 -18 -20 -25 -32 -15 -28
10 3 19 0 22 -9 8 -22 8 -24 -8 -18 -9 3 -16 -4 -20 -21 -6 -22 -11 -25 -29
-19 -43 14 -51 10 -58 -29 -7 -44 -29 -70 -50 -62 -28 11 -52 65 -46 105 4 31
1 43 -18 60 -17 16 -24 18 -29 8 -3 -7 -5 -4 -2 8 2 11 -3 29 -11 40 -13 18
-14 17 -8 -11 5 -23 4 -26 -4 -15 -9 13 -11 13 -11 -2 0 -10 -4 -18 -10 -18
-5 0 -10 8 -11 18 0 12 -3 10 -11 -8 -10 -22 -12 -17 -19 47 -7 73 4 130 29
155 9 9 12 6 12 -13 0 -18 5 -25 19 -25 16 0 17 4 10 23 -5 14 -5 33 1 48 11
30 48 33 104 10 39 -16 42 -24 25 -58 -10 -22 -10 -22 10 1 25 29 35 28 48 -5
l11 -28 1 33 c1 17 6 32 11 32 6 0 10 4 10 9 0 5 -17 11 -37 14 -37 5 -164 37
-172 43 -9 8 91 112 118 123 21 9 30 21 34 44 2 18 3 34 1 36 -6 7 -74 -41
-69 -49 3 -5 -4 -11 -15 -15 -24 -8 -62 -59 -52 -70 4 -5 1 -5 -6 -1 -7 4 -19
2 -27 -4 -18 -15 -20 1 -3 18 7 7 8 12 4 12 -5 0 3 9 18 21 14 11 26 26 26 32
0 8 -4 7 -12 -1 -7 -7 -17 -12 -23 -12 -5 1 10 19 35 40 52 46 41 54 -15 10
-43 -35 -75 -39 -75 -11 0 10 -9 21 -19 24 -14 3 -23 -3 -31 -24 -7 -16 -16
-29 -20 -29 -8 0 -20 31 -24 63 -2 9 -11 24 -22 31 -16 13 -20 12 -27 0 -7
-12 -12 -13 -23 -3 -11 9 -14 7 -14 -12 0 -19 -2 -21 -10 -9 -8 12 -10 10 -10
-10 0 -25 0 -25 -16 5 -8 16 -22 37 -30 46 -8 8 -14 23 -14 32 0 10 -8 17 -20
17 -11 0 -20 -4 -20 -9z m30 -147 c23 -26 52 -38 61 -23 6 10 11 10 22 1 7 -6
29 -14 48 -16 90 -12 124 -45 121 -118 -1 -28 -4 -53 -6 -55 -2 -3 -21 0 -43
6 -21 6 -60 11 -88 11 -27 0 -75 9 -105 20 -30 11 -76 19 -102 20 l-46 0 19
63 c20 66 38 87 77 87 13 0 20 4 17 10 -10 16 11 11 25 -6z m675 -902 c6 -14
22 -23 50 -28 81 -13 96 -57 39 -116 -28 -31 -42 -38 -72 -38 -28 0 -33 3 -22
10 24 16 1 11 -62 -12 -58 -21 -60 -21 -96 -3 -20 10 -41 18 -46 16 -12 -3
-36 19 -36 34 0 15 38 33 120 56 55 16 58 18 20 13 -25 -4 -62 -13 -83 -22
-25 -10 -42 -11 -48 -5 -12 12 33 44 76 53 26 5 30 10 28 39 -1 26 2 31 15 26
20 -8 20 -8 52 -6 l24 1 -22 16 c-12 8 -22 19 -22 25 0 15 74 -36 85 -59z
m-692 -74 c-5 -19 -3 -21 8 -10 19 18 37 15 49 -8 7 -14 7 -26 1 -39 -11 -20
-51 -36 -51 -20 0 5 -4 9 -10 9 -5 0 -10 -9 -10 -20 0 -11 -7 -20 -15 -20 -14
0 -106 21 -114 27 -2 1 3 15 10 32 11 24 22 31 54 37 22 3 49 13 60 20 25 18
24 18 18 -8z"/>
<path d="M995 233 c-37 -45 -55 -76 -55 -94 0 -27 3 -28 53 -31 46 -3 52 -6
55 -26 3 -19 9 -23 35 -20 23 2 33 9 36 23 2 11 9 24 17 28 19 11 18 43 -1 51
-11 4 -15 21 -15 65 0 44 -4 60 -16 65 -37 14 -55 4 -109 -61z m113 -11 c2
-44 7 -65 17 -69 20 -7 19 -33 0 -33 -9 0 -15 -9 -15 -25 0 -34 -47 -37 -52
-3 -3 20 -10 23 -55 26 -70 4 -70 22 -1 108 43 53 57 64 78 62 23 -3 25 -7 28
-66z"/>
<path d="M1957 294 c-4 -4 -7 -58 -7 -121 l0 -113 35 0 c34 0 35 1 35 43 l0
42 36 -42 c31 -37 41 -43 75 -43 21 0 39 3 39 7 0 3 -19 31 -42 60 -29 39 -39
59 -32 68 5 7 22 29 37 48 32 40 29 57 -9 57 -24 0 -92 -61 -95 -85 -1 -5 -5
10 -8 35 -5 39 -9 45 -31 48 -14 2 -29 0 -33 -4z m53 -56 l1 -53 47 53 c31 34
55 52 70 52 29 0 28 -5 -13 -53 -19 -22 -35 -46 -35 -52 0 -7 16 -33 35 -58
19 -25 35 -48 35 -51 0 -3 -13 -6 -29 -6 -22 0 -35 9 -56 40 -33 48 -49 47
-53 -3 -3 -32 -7 -37 -28 -37 -24 0 -24 0 -24 103 0 57 3 107 7 110 3 4 15 7
25 7 15 0 18 -8 18 -52z"/>
</g>
</svg>
