<?xml version="1.0" standalone="no"?>
<!DOCTYPE svg PUBLIC "-//W3C//DTD SVG 20010904//EN"
 "http://www.w3.org/TR/2001/REC-SVG-20010904/DTD/svg10.dtd">
<svg version="1.0" xmlns="http://www.w3.org/2000/svg"
 width="512.000000pt" height="512.000000pt" viewBox="0 0 512.000000 512.000000"
 preserveAspectRatio="xMidYMid meet">
<metadata>
Created by potrace 1.15, written by Peter Selinger 2001-2017
</metadata>
<g transform="translate(0.000000,512.000000) scale(0.100000,-0.100000)"
fill="#000000" stroke="none">
<path d="M465 3181 c-216 -62 -394 -243 -449 -457 -21 -81 -21 -247 0 -328 57
-220 248 -410 465 -461 82 -19 236 -19 318 0 219 52 414 247 466 466 19 82 19
236 0 318 -51 217 -241 408 -461 465 -84 22 -259 20 -339 -3z"/>
<path d="M2385 3181 c-216 -62 -394 -243 -449 -457 -21 -81 -21 -247 0 -328
57 -220 248 -410 465 -461 82 -19 236 -19 318 0 166 40 329 167 409 321 52
102 72 183 72 304 0 121 -20 202 -72 304 -79 152 -237 277 -404 320 -84 22
-259 20 -339 -3z"/>
<path d="M4305 3181 c-166 -48 -315 -168 -392 -316 -55 -107 -73 -181 -73
-305 0 -124 18 -198 73 -305 79 -153 242 -281 408 -320 82 -19 236 -19 318 0
166 40 329 167 409 321 52 102 72 183 72 304 0 121 -20 202 -72 304 -79 152
-237 277 -404 320 -84 22 -259 20 -339 -3z"/>
</g>
</svg>
