<?xml version="1.0" standalone="no"?>
<!DOCTYPE svg PUBLIC "-//W3C//DTD SVG 20010904//EN"
 "http://www.w3.org/TR/2001/REC-SVG-20010904/DTD/svg10.dtd">
<svg version="1.0" xmlns="http://www.w3.org/2000/svg"
 width="880.000000pt" height="930.000000pt" viewBox="0 0 880.000000 930.000000"
 preserveAspectRatio="xMidYMid meet">
<metadata>
Created by potrace 1.15, written by Peter Selinger 2001-2017
</metadata>
<g transform="translate(0.000000,930.000000) scale(0.100000,-0.100000)"
fill="#000000" stroke="none">
<path d="M8030 8886 c-19 -7 -132 -70 -250 -138 -194 -113 -549 -317 -785
-453 -71 -41 -1793 -1035 -2205 -1273 -142 -82 -1030 -595 -1225 -707 -93 -54
-271 -157 -395 -228 -124 -72 -308 -178 -410 -237 -359 -207 -656 -378 -740
-427 -47 -27 -240 -138 -430 -248 -190 -109 -408 -235 -485 -280 -77 -45 -237
-138 -355 -205 -118 -68 -232 -136 -252 -152 -56 -44 -88 -117 -88 -201 0 -95
16 -142 70 -199 49 -53 6 -33 555 -257 105 -43 390 -160 635 -261 577 -237
659 -270 673 -270 7 0 73 53 147 118 74 65 338 293 585 507 457 395 594 514
739 641 45 38 250 216 456 394 206 178 425 367 485 420 61 53 160 139 220 191
61 52 159 137 219 189 60 52 216 187 345 299 130 111 263 227 296 255 50 44
870 754 1142 990 82 70 124 98 92 60 -9 -10 -67 -82 -130 -159 -189 -234 -456
-562 -574 -705 -61 -74 -221 -270 -355 -435 -134 -165 -314 -386 -400 -490
-85 -105 -261 -320 -390 -479 -129 -159 -322 -395 -428 -525 -106 -130 -224
-274 -262 -321 -38 -47 -166 -204 -285 -350 -119 -146 -251 -308 -293 -360
-42 -52 -100 -121 -127 -155 -28 -33 -166 -203 -308 -377 l-257 -318 2 -812
c3 -808 3 -813 25 -860 49 -107 164 -174 280 -165 125 10 100 -17 709 726 303
370 556 677 561 682 7 7 21 5 44 -5 19 -9 183 -76 364 -150 182 -74 492 -200
690 -281 198 -81 430 -176 515 -210 85 -35 223 -91 305 -126 136 -56 157 -62
220 -62 113 0 209 62 254 163 29 66 1174 6947 1167 7012 -10 88 -73 176 -159
219 -52 27 -157 35 -207 15z"/>
</g>
</svg>
